<?xml version="1.0" encoding="UTF-8" standalone="no"?>
<!-- Created with Inkscape (http://www.inkscape.org/) -->

<svg
   version="1.1"
   id="svg1"
   width="991.53333"
   height="581.97333"
   viewBox="0 0 991.53333 581.97333"
   sodipodi:docname="logo_maitres-patineurs.eps"
   xmlns:inkscape="http://www.inkscape.org/namespaces/inkscape"
   xmlns:sodipodi="http://sodipodi.sourceforge.net/DTD/sodipodi-0.dtd"
   xmlns="http://www.w3.org/2000/svg"
   xmlns:svg="http://www.w3.org/2000/svg">
  <defs
     id="defs1" />
  <sodipodi:namedview
     id="namedview1"
     pagecolor="#ffffff"
     bordercolor="#000000"
     borderopacity="0.25"
     inkscape:showpageshadow="2"
     inkscape:pageopacity="0.0"
     inkscape:pagecheckerboard="0"
     inkscape:deskcolor="#d1d1d1">
    <inkscape:page
       x="0"
       y="0"
       inkscape:label="1"
       id="page1"
       width="991.53333"
       height="581.97333"
       margin="0"
       bleed="0" />
  </sodipodi:namedview>
  <g
     id="g1"
     inkscape:groupmode="layer"
     inkscape:label="1">
    <g
       id="group-R5">
      <path
         id="path2"
         d="M 4472.07,375.082 C 2395.61,-241.988 466.453,85.0195 163.176,1105.48 -140.039,2125.95 1297.42,3453.44 3373.83,4070.47 3914.58,4231.16 4445.24,4327.69 4939.89,4364.76 4422.47,4330.46 3864.64,4231.45 3295.83,4062.41 1190.83,3436.89 -266.48,2091.11 40.9336,1056.63 348.352,22.0898 2304.1,-309.398 4409.15,316.18 5823.93,736.621 6946.05,1482.36 7436.53,2240.28 6941.88,1503.98 5847.23,783.719 4472.07,375.082"
         style="fill:#eff0f2;fill-opacity:1;fill-rule:nonzero;stroke:none"
         transform="matrix(0.13333333,0,0,-0.13333333,0,581.97333)" />
      <path
         id="path3"
         d="m 4778.66,3069.11 -33.73,-161.85 h -37.06 l 18.38,88.16 c 1.46,7.05 3.37,15.02 5.7,23.94 l 3.25,12.11 3.2,11.98 h -1.13 l -6.78,-11.27 -6.61,-11.28 c -6.09,-10.11 -10.74,-17.58 -13.92,-22.39 l -61.7,-91.25 h -33.56 l -24.25,90.53 c -1.32,4.99 -2.9,12.45 -4.71,22.39 l -2.04,11.29 -2.1,11.16 h -1.14 l -1.73,-11.76 -1.77,-11.87 c -1.33,-9.16 -2.68,-17.02 -4.05,-23.58 l -18.39,-88.16 h -37.05 l 33.73,161.85 h 60.26 l 19.08,-74.98 c 1.29,-5.23 2.83,-12.69 4.71,-22.39 l 1.91,-11.27 2.11,-11.13 h 1.28 l 6.45,11.13 6.57,11.13 c 5.47,9.42 10.04,16.83 13.75,22.29 l 49.82,75.22 h 61.52"
         style="fill:#eff0f2;fill-opacity:1;fill-rule:nonzero;stroke:none"
         transform="matrix(0.13333333,0,0,-0.13333333,0,581.97333)" />
      <path
         id="path4"
         d="m 4902.21,2961.4 -16.16,83.85 -50.54,-83.85 z m 3.78,-22.89 h -83.94 l -18.64,-31.25 h -39.05 l 98.43,161.85 h 55.44 l 31.97,-161.85 h -38.33 l -5.88,31.25"
         style="fill:#eff0f2;fill-opacity:1;fill-rule:nonzero;stroke:none"
         transform="matrix(0.13333333,0,0,-0.13333333,0,581.97333)" />
      <path
         id="path5"
         d="m 5031.8,3115.09 41.34,-22.52 -8.51,-10.79 -36.95,13.54 -42.87,-13.54 -3.88,10.79 z m 8.66,-45.98 -33.75,-161.85 h -37.06 l 33.75,161.85 h 37.06"
         style="fill:#eff0f2;fill-opacity:1;fill-rule:nonzero;stroke:none"
         transform="matrix(0.13333333,0,0,-0.13333333,0,581.97333)" />
      <path
         id="path6"
         d="m 5149.68,3041.76 -28.05,-134.5 h -37.05 l 28.04,134.5 h -55.87 l 5.71,27.35 h 151.07 l -5.71,-27.35 h -58.14"
         style="fill:#eff0f2;fill-opacity:1;fill-rule:nonzero;stroke:none"
         transform="matrix(0.13333333,0,0,-0.13333333,0,581.97333)" />
      <path
         id="path7"
         d="m 5254.91,2987.63 h 52.9 c 12.69,0 21.49,1.88 26.42,5.65 4.94,3.77 8.57,11.32 10.95,22.66 2.42,11.58 2.17,19.07 -0.71,22.43 -2.87,3.37 -10.35,5.07 -22.46,5.07 h -55.48 z m -53.82,-80.37 33.73,161.85 h 95.95 c 23.95,0 39.73,-3.45 47.38,-10.31 7.62,-6.88 9.55,-19.33 5.81,-37.32 -3.43,-16.36 -8.02,-27.55 -13.82,-33.54 -5.79,-6.02 -15.99,-10.17 -30.53,-12.43 l -0.23,-1.09 c 21.41,-1.1 30.07,-11.56 25.94,-31.37 l -7.47,-35.79 h -37.05 l 6.16,29.6 c 3.49,16.74 -4.63,25.1 -24.34,25.1 h -53.07 l -11.41,-54.7 h -37.05"
         style="fill:#eff0f2;fill-opacity:1;fill-rule:nonzero;stroke:none"
         transform="matrix(0.13333333,0,0,-0.13333333,0,581.97333)" />
      <path
         id="path8"
         d="m 5453.29,3043.44 -8.73,-41.86 h 91.21 L 5531,2978.7 h -91.21 l -9.55,-45.76 h 96.91 l -5.34,-25.68 h -133.98 l 33.75,161.85 h 133.39 l -5.33,-25.67 h -96.35"
         style="fill:#eff0f2;fill-opacity:1;fill-rule:nonzero;stroke:none"
         transform="matrix(0.13333333,0,0,-0.13333333,0,581.97333)" />
      <path
         id="path9"
         d="m 5720.31,3021.66 h -36.05 c 0.12,1.51 0.24,2.6 0.41,3.33 1.02,9.11 -0.18,14.84 -3.69,17.17 -3.52,2.34 -12.66,3.51 -27.48,3.51 -17.48,0 -29.21,-1.34 -35.12,-4.04 -5.93,-2.68 -9.81,-8.35 -11.6,-16.97 -2.12,-10.19 -1.2,-16.31 2.75,-18.37 3.96,-2.06 18.07,-3.65 42.43,-4.75 28.77,-1.35 46.82,-4.79 54.21,-10.3 7.37,-5.55 9.22,-17.06 5.59,-34.54 -4.49,-21.5 -12.4,-35.4 -23.67,-41.68 -11.33,-6.29 -34.01,-9.43 -68.09,-9.43 -30.66,0 -50.34,3.11 -59.11,9.31 -8.74,6.21 -11.13,18.79 -7.18,37.73 l 1.1,5.98 h 35.92 l -0.59,-3.51 c -2.4,-11.49 -1.49,-18.52 2.75,-21.1 4.24,-2.58 16.97,-3.86 38.25,-3.86 16.56,0 27.44,1.46 32.65,4.39 5.17,2.93 8.88,9.68 11.1,20.29 1.62,7.82 0.95,13.01 -1.98,15.59 -2.96,2.57 -10.14,4.12 -21.53,4.67 l -20.23,1.08 c -30.6,1.51 -49.59,5.06 -57.01,10.68 -7.41,5.62 -9.19,17.67 -5.32,36.17 3.93,18.91 11.71,31.49 23.33,37.78 11.63,6.27 32.88,9.42 63.74,9.42 29.29,0 48.39,-2.87 57.36,-8.64 8.97,-5.77 11.69,-17 8.21,-33.74 l -1.15,-6.17"
         style="fill:#eff0f2;fill-opacity:1;fill-rule:nonzero;stroke:none"
         transform="matrix(0.13333333,0,0,-0.13333333,0,581.97333)" />
      <path
         id="path10"
         d="m 5728.05,2982.61 h 64.99 l -5.36,-25.68 h -64.99 l 5.36,25.68"
         style="fill:#eff0f2;fill-opacity:1;fill-rule:nonzero;stroke:none"
         transform="matrix(0.13333333,0,0,-0.13333333,0,581.97333)" />
      <path
         id="path11"
         d="m 5850.54,2985.39 h 42.05 c 16.6,0 27.47,1.61 32.61,4.81 5.15,3.22 8.98,10.8 11.47,22.78 2.87,13.72 2.79,22.22 -0.26,25.52 -3.03,3.28 -12.37,4.94 -28,4.94 h -45.76 z m -53.33,-78.13 33.73,161.85 h 88.22 c 26.27,0 43.17,-3.83 50.76,-11.43 7.54,-7.62 9.05,-22.32 4.52,-44.09 -4.52,-21.62 -11.88,-35.99 -22.07,-43.09 -10.2,-7.1 -28.59,-10.65 -55.14,-10.65 l -8.57,-0.12 h -43.46 l -10.93,-52.47 h -37.06"
         style="fill:#eff0f2;fill-opacity:1;fill-rule:nonzero;stroke:none"
         transform="matrix(0.13333333,0,0,-0.13333333,0,581.97333)" />
      <path
         id="path12"
         d="m 6098.87,2961.4 -16.16,83.85 -50.55,-83.85 z m 3.78,-22.89 h -83.95 l -18.64,-31.25 h -39.05 l 98.44,161.85 h 55.44 l 31.96,-161.85 h -38.33 l -5.87,31.25"
         style="fill:#eff0f2;fill-opacity:1;fill-rule:nonzero;stroke:none"
         transform="matrix(0.13333333,0,0,-0.13333333,0,581.97333)" />
      <path
         id="path13"
         d="m 6271.88,3041.76 -28.04,-134.5 h -37.06 l 28.03,134.5 h -55.85 l 5.7,27.35 h 151.06 l -5.7,-27.35 h -58.14"
         style="fill:#eff0f2;fill-opacity:1;fill-rule:nonzero;stroke:none"
         transform="matrix(0.13333333,0,0,-0.13333333,0,581.97333)" />
      <path
         id="path14"
         d="m 6394.07,3069.11 -33.75,-161.85 h -37.04 l 33.73,161.85 h 37.06"
         style="fill:#eff0f2;fill-opacity:1;fill-rule:nonzero;stroke:none"
         transform="matrix(0.13333333,0,0,-0.13333333,0,581.97333)" />
      <path
         id="path15"
         d="m 6611.76,3069.11 -33.75,-161.85 h -62.68 l -36.99,88.75 c -1.84,4.43 -4.55,12.18 -8.12,23.23 l -3.84,11.63 -3.69,11.64 h -1.45 l -1.63,-10.67 -1.79,-10.58 -4.13,-21.2 -19.34,-92.8 h -37.06 l 33.75,161.85 h 62.66 l 33.43,-82.09 c 2.93,-7.28 6.27,-16.09 10,-26.44 l 4.67,-13.15 4.62,-13.26 h 1.29 l 1.74,10.42 1.74,10.42 4.06,20.88 19.45,93.22 h 37.06"
         style="fill:#eff0f2;fill-opacity:1;fill-rule:nonzero;stroke:none"
         transform="matrix(0.13333333,0,0,-0.13333333,0,581.97333)" />
      <path
         id="path16"
         d="m 6676.16,3043.44 -8.73,-41.86 h 91.22 l -4.77,-22.88 h -91.21 l -9.55,-45.76 h 96.91 l -5.35,-25.68 h -133.97 l 33.74,161.85 h 133.4 l -5.34,-25.67 h -96.35"
         style="fill:#eff0f2;fill-opacity:1;fill-rule:nonzero;stroke:none"
         transform="matrix(0.13333333,0,0,-0.13333333,0,581.97333)" />
      <path
         id="path17"
         d="m 6933.54,3069.11 h 37.06 l -22.47,-107.69 c -4.71,-22.62 -13.02,-37.57 -24.95,-44.88 -11.93,-7.31 -33.97,-10.95 -66.07,-10.95 -33.92,0 -55.42,3.43 -64.54,10.35 -9.1,6.9 -11.33,21.48 -6.7,43.69 l 22.81,109.48 h 37.06 l -22.82,-109.48 c -2.52,-12.07 -1.55,-19.71 2.87,-22.95 4.45,-3.25 16.12,-4.86 35.08,-4.86 19.41,0 31.93,1.61 37.61,4.9 5.64,3.28 9.81,11.31 12.48,24.1 l 22.58,108.29"
         style="fill:#eff0f2;fill-opacity:1;fill-rule:nonzero;stroke:none"
         transform="matrix(0.13333333,0,0,-0.13333333,0,581.97333)" />
      <path
         id="path18"
         d="m 7027.51,2987.63 h 52.91 c 12.68,0 21.47,1.88 26.42,5.65 4.94,3.77 8.57,11.32 10.93,22.66 2.43,11.58 2.2,19.07 -0.7,22.43 -2.85,3.37 -10.35,5.07 -22.45,5.07 h -55.49 z m -53.82,-80.37 33.73,161.85 h 95.96 c 23.94,0 39.73,-3.45 47.37,-10.31 7.63,-6.88 9.55,-19.33 5.8,-37.32 -3.42,-16.36 -8.01,-27.55 -13.82,-33.54 -5.79,-6.02 -15.98,-10.17 -30.51,-12.43 l -0.23,-1.09 c 21.41,-1.1 30.06,-11.56 25.93,-31.37 l -7.47,-35.79 h -37.04 l 6.15,29.6 c 3.5,16.74 -4.63,25.1 -24.35,25.1 h -53.06 l -11.4,-54.7 h -37.06"
         style="fill:#eff0f2;fill-opacity:1;fill-rule:nonzero;stroke:none"
         transform="matrix(0.13333333,0,0,-0.13333333,0,581.97333)" />
      <path
         id="path19"
         d="m 7332.66,3021.66 h -36.06 c 0.12,1.51 0.26,2.6 0.41,3.33 1.04,9.11 -0.18,14.84 -3.68,17.17 -3.52,2.34 -12.68,3.51 -27.5,3.51 -17.47,0 -29.19,-1.34 -35.12,-4.04 -5.92,-2.68 -9.78,-8.35 -11.59,-16.97 -2.12,-10.19 -1.21,-16.31 2.75,-18.37 3.95,-2.06 18.08,-3.65 42.43,-4.75 28.78,-1.35 46.82,-4.79 54.21,-10.3 7.37,-5.55 9.23,-17.06 5.6,-34.54 -4.49,-21.5 -12.4,-35.4 -23.68,-41.68 -11.33,-6.29 -34.01,-9.43 -68.1,-9.43 -30.64,0 -50.34,3.11 -59.1,9.31 -8.75,6.21 -11.13,18.79 -7.18,37.73 l 1.1,5.98 h 35.92 l -0.59,-3.51 c -2.4,-11.49 -1.49,-18.52 2.74,-21.1 4.24,-2.58 16.98,-3.86 38.26,-3.86 16.56,0 27.45,1.46 32.64,4.39 5.18,2.93 8.88,9.68 11.11,20.29 1.62,7.82 0.96,13.01 -1.98,15.59 -2.96,2.57 -10.13,4.12 -21.54,4.67 l -20.21,1.08 c -30.62,1.51 -49.6,5.06 -57.02,10.68 -7.4,5.62 -9.19,17.67 -5.32,36.17 3.94,18.91 11.7,31.49 23.34,37.78 11.61,6.27 32.86,9.42 63.74,9.42 29.27,0 48.39,-2.87 57.35,-8.64 8.98,-5.77 11.7,-17 8.2,-33.74 l -1.13,-6.17"
         style="fill:#eff0f2;fill-opacity:1;fill-rule:nonzero;stroke:none"
         transform="matrix(0.13333333,0,0,-0.13333333,0,581.97333)" />
      <path
         id="path20"
         d="m 5363.85,2611.49 h 52.59 c 17.66,0 29.8,3.37 36.38,10.16 6.59,6.79 12.32,21.75 17.15,44.91 4.98,23.95 5.82,39.15 2.52,45.67 -3.31,6.49 -13.55,9.75 -30.74,9.75 h -54.87 z m -42.41,-25.68 33.75,161.85 h 95.77 c 27.21,0 45.25,-4.94 54.08,-14.82 8.86,-9.89 10.69,-27.2 5.54,-51.93 -8.42,-40.38 -18.22,-66.34 -29.39,-77.85 -11.15,-11.51 -32.09,-17.25 -62.84,-17.25 h -96.91"
         style="fill:#eff0f2;fill-opacity:1;fill-rule:nonzero;stroke:none"
         transform="matrix(0.13333333,0,0,-0.13333333,0,581.97333)" />
      <path
         id="path21"
         d="m 5581.46,2721.98 -8.71,-41.85 h 91.21 l -4.77,-22.88 h -91.21 l -9.55,-45.76 h 96.91 l -5.34,-25.68 h -133.96 l 33.74,161.85 h 133.39 l -5.36,-25.68 h -96.35"
         style="fill:#eff0f2;fill-opacity:1;fill-rule:nonzero;stroke:none"
         transform="matrix(0.13333333,0,0,-0.13333333,0,581.97333)" />
      <path
         id="path22"
         d="m 6017.08,2747.66 -33.75,-161.85 h -37.06 l 18.37,88.16 c 1.47,7.05 3.37,15.02 5.72,23.94 l 3.22,12.11 3.24,11.98 h -1.15 l -6.76,-11.27 -6.62,-11.28 c -6.11,-10.11 -10.74,-17.58 -13.91,-22.4 l -61.72,-91.24 h -33.55 l -24.25,90.53 c -1.31,4.99 -2.9,12.46 -4.72,22.39 l -2.05,11.29 -2.09,11.17 h -1.14 l -1.74,-11.77 -1.76,-11.87 c -1.34,-9.15 -2.69,-17.02 -4.06,-23.58 l -18.37,-88.16 h -37.06 l 33.75,161.85 h 60.24 l 19.07,-74.98 c 1.28,-5.22 2.85,-12.7 4.71,-22.39 l 1.91,-11.27 2.11,-11.13 h 1.28 l 6.45,11.13 6.58,11.13 c 5.47,9.42 10.06,16.83 13.74,22.29 l 49.83,75.22 h 61.54"
         style="fill:#eff0f2;fill-opacity:1;fill-rule:nonzero;stroke:none"
         transform="matrix(0.13333333,0,0,-0.13333333,0,581.97333)" />
      <path
         id="path23"
         d="m 6126.63,2722.54 c -24.66,0 -39.62,-2.65 -44.87,-7.95 -5.28,-5.3 -11.17,-23.67 -17.73,-55.07 -4.84,-23.27 -5.34,-37.27 -1.43,-42.02 3.85,-4.76 17.68,-7.13 41.49,-7.13 22.77,0 36.96,2.67 42.62,8 5.63,5.34 11.3,21.56 16.94,48.63 5.66,27.13 6.85,43.17 3.58,48.13 -3.27,4.94 -16.8,7.41 -40.6,7.41 z m 8.32,26.23 c 35.28,0 56.99,-4.88 65.12,-14.63 8.07,-9.77 8.61,-31.6 1.55,-65.5 -7.73,-37.04 -17.69,-60.4 -29.9,-70.04 -12.22,-9.65 -37.9,-14.46 -77.08,-14.46 -35.29,0 -57.12,4.76 -65.47,14.28 -8.34,9.52 -9.14,30.49 -2.38,62.89 8.02,38.54 18.15,62.77 30.36,72.66 12.21,9.87 38.14,14.8 77.8,14.8"
         style="fill:#eff0f2;fill-opacity:1;fill-rule:nonzero;stroke:none"
         transform="matrix(0.13333333,0,0,-0.13333333,0,581.97333)" />
      <path
         id="path24"
         d="m 6426.5,2747.66 -33.73,-161.85 h -62.68 l -37,88.75 c -1.84,4.44 -4.54,12.17 -8.12,23.23 l -3.85,11.63 -3.67,11.64 h -1.43 l -1.65,-10.68 -1.78,-10.57 -4.13,-21.2 -19.35,-92.8 h -37.06 l 33.74,161.85 h 62.68 l 33.41,-82.09 c 2.94,-7.27 6.28,-16.08 10,-26.44 l 4.67,-13.15 4.63,-13.26 h 1.29 l 1.74,10.43 1.73,10.41 4.08,20.88 19.43,93.22 h 37.05"
         style="fill:#eff0f2;fill-opacity:1;fill-rule:nonzero;stroke:none"
         transform="matrix(0.13333333,0,0,-0.13333333,0,581.97333)" />
      <path
         id="path25"
         d="M 6535.04,2720.31 6507,2585.81 h -37.06 l 28.04,134.5 h -55.87 l 5.71,27.35 h 151.07 l -5.71,-27.35 h -58.14"
         style="fill:#eff0f2;fill-opacity:1;fill-rule:nonzero;stroke:none"
         transform="matrix(0.13333333,0,0,-0.13333333,0,581.97333)" />
      <path
         id="path26"
         d="m 6640.23,2666.18 h 52.93 c 12.66,0 21.47,1.88 26.4,5.65 4.94,3.77 8.58,11.32 10.96,22.67 2.4,11.57 2.19,19.05 -0.7,22.43 -2.87,3.36 -10.37,5.05 -22.49,5.05 h -55.46 z m -53.8,-80.37 33.75,161.85 h 95.94 c 23.95,0 39.73,-3.44 47.36,-10.31 7.63,-6.88 9.57,-19.33 5.8,-37.32 -3.4,-16.37 -8.02,-27.54 -13.81,-33.54 -5.8,-6.02 -15.97,-10.17 -30.53,-12.43 l -0.21,-1.09 c 21.41,-1.1 30.06,-11.56 25.94,-31.37 l -7.47,-35.79 h -37.06 l 6.17,29.59 c 3.49,16.75 -4.63,25.11 -24.35,25.11 h -53.08 l -11.39,-54.7 h -37.06"
         style="fill:#eff0f2;fill-opacity:1;fill-rule:nonzero;stroke:none"
         transform="matrix(0.13333333,0,0,-0.13333333,0,581.97333)" />
      <path
         id="path27"
         d="m 6913.44,2790.92 2.6,-19.67 -56.32,-7.71 -1.18,12.21 z m -74.81,-68.94 -8.72,-41.85 h 91.21 l -4.76,-22.88 h -91.21 l -9.54,-45.76 h 96.9 l -5.34,-25.68 h -133.98 l 33.75,161.85 h 133.39 l -5.36,-25.68 h -96.34"
         style="fill:#eff0f2;fill-opacity:1;fill-rule:nonzero;stroke:none"
         transform="matrix(0.13333333,0,0,-0.13333333,0,581.97333)" />
      <path
         id="path28"
         d="m 7057.88,2639.95 -16.14,83.85 -50.55,-83.85 z m 3.78,-22.89 h -83.95 l -18.61,-31.25 h -39.05 l 98.44,161.85 h 55.44 l 31.96,-161.85 h -38.33 l -5.9,31.25"
         style="fill:#eff0f2;fill-opacity:1;fill-rule:nonzero;stroke:none"
         transform="matrix(0.13333333,0,0,-0.13333333,0,581.97333)" />
      <path
         id="path29"
         d="m 7196.13,2747.66 -28.02,-134.5 h 91.21 l -5.71,-27.35 h -128.27 l 33.75,161.85 h 37.04"
         style="fill:#eff0f2;fill-opacity:1;fill-rule:nonzero;stroke:none"
         transform="matrix(0.13333333,0,0,-0.13333333,0,581.97333)" />
      <path
         id="path30"
         d="m 3940.23,2572.74 c 25.6,-2.59 46.25,-28.5 60.05,-41.05 33.46,-30.4 208.88,-193.03 258.43,-221.95 36.48,-21.28 43.3,-61.96 48.64,-94.26 20.01,-121.1 248.93,-536.69 276.68,-589.82 49,-93.83 19.09,-100.93 55.57,-161.73 36.48,-60.8 45.09,-38.81 41.73,-124.07 -2.29,-57.76 -23.95,-72.59 -13.68,-89.68 7.98,-13.32 73.47,0.38 77.53,59.29 2.93,42.89 15.03,61.9 45.45,49.73 30.4,-12.16 130.89,-86.21 173.44,-116.62 42.57,-30.4 70.17,-10.59 79.29,4.6 9.03,15.05 -29.8,34.22 -45.38,46.72 11.63,4.26 52.63,17.65 7.04,42.73 -7.82,4.29 -15.71,12.17 -27.03,19.44 -42.58,27.36 -66.55,50.52 -87,73.01 -15.97,17.55 -24.04,37.14 -36.39,47.86 -36.65,31.75 -87.04,56.4 -100.31,94.01 -18.24,51.68 -49.98,70.75 -57.78,106.41 -33.79,154.86 -12.14,270.6 -69.92,431.74 -57.77,161.13 -136.83,276.66 -170.27,316.19 -33.44,39.53 -45.61,158.1 -267.54,437.81 -36.1,45.52 -63.08,106.48 -109.45,161.12 -50.8,59.86 -155.97,105.6 -185.47,103.4 0,15.2 -6.08,60.8 3.04,82.09 30.41,12.16 57.78,9.12 54.73,72.97 -3.05,63.85 -60.8,322.28 -291.87,334.45 -231.08,12.15 -255.39,-100.34 -301.01,-152.03 -39.51,136.82 -101.96,272.48 -118.57,322.28 -18.24,54.73 -44.16,175.74 -153.58,199.09 -107.7,22.98 -287.28,74.55 -320.72,92.79 -4.12,23.24 -22.46,36.19 -22.46,36.19 -12.16,6.09 -96.12,67.18 -105.23,85.43 -9.12,18.24 -41.05,39.08 -69.45,22.5 -23.66,-13.81 -30.89,-31.62 -40.01,-31.62 -9.12,0 -33.43,-15.21 -33.43,-15.21 l -54.73,-48.64 -39.53,-63.85 c 0,0 -12.15,-42.57 21.28,-69.93 33.45,-27.36 -6.08,-45.61 48.65,-72.97 54.72,-27.37 109.46,-60.82 215.87,-9.12 21.28,15.2 33.44,15.2 42.56,6.08 9.12,-9.12 131.92,-64.92 246.7,-158.37 33.06,-26.88 28.34,-106.94 40.17,-176.09 16.55,-96.74 24.09,-198.89 26.29,-243.21 3.84,-77.22 6.25,-109.4 39.52,-173.31 -183.8,-40.65 -280.05,-215.75 -331.8,-407.7 l -1.88,4.51 c -16.57,-53.54 -24.57,-97.08 -40.29,-172.17 -64.44,-43.08 -127.96,-79.14 -171.93,-95.23 -89.72,-32.83 -125.64,-65.1 -173.3,-100.33 -47.67,-35.24 -54.46,-24.03 -166.95,-42.91 -124.93,-20.94 -162.47,-21.28 -240.39,-72.51 -151.29,-99.48 -307.96,-123.62 -334.9,-123.62 -26.93,0 -33.16,-2.09 -53.88,8.28 -20.72,10.36 -95.32,0 -103.62,-10.37 -8.29,-10.37 -80.82,-8.28 -111.91,-8.28 -31.08,0 -29.01,-33.15 -159.56,-18.65 -130.56,14.49 -174.09,-113.98 -176.16,-151.28 l -269.405,-72.55 6.215,-24.85 c 0,0 269.41,41.44 285.99,43.5 20.72,-22.8 49.73,-66.31 149.2,-68.37 99.48,-2.07 194.81,60.09 217.6,72.53 22.8,12.42 58.03,8.27 72.54,8.27 8.29,-4.15 41.44,-26.93 47.66,-26.93 6.21,0 55.86,10.69 55.86,10.69 0,0 10.45,1.75 12.53,10.02 2.07,8.29 14.51,10.37 29.01,16.6 62.65,26.86 341.86,36.35 433.13,37.3 133.04,1.38 201.94,43.54 254.7,72.53 -1.2,-1.59 -2.35,-2.95 -3.56,-4.58 -103.61,-140.94 -192.73,-232.11 -209.3,-240.4 -16.58,-8.28 -44.96,-5.3 -49.74,-14.51 -26.95,-51.81 -99.48,-101.55 -99.48,-101.55 -26.95,2.06 -47.66,-10.35 -55.95,-20.72 -217.59,-39.36 -151.28,-136.78 -140.92,-165.8 l -39.38,-45.59 18.65,-26.94 -180.29,-172.01 20.73,-24.85 213.45,151.28 24.86,4.13 c 0,0 29.03,-16.56 53.87,-20.72 62.16,-10.39 124.34,99.48 174.08,97.4 17.06,-0.72 -10.37,14.52 68.38,47.67 78.75,33.15 118.12,93.25 134.7,114 16.59,20.73 60.1,70.45 143,103.63 233.75,93.52 265.28,169.93 275.63,184.43 10.36,14.5 34.14,41.05 47.66,53.89 90.81,86.33 165.93,105.8 233.22,119.25 28.22,5.63 55.07,10.21 81.12,18.21 207.14,43.34 436.71,146.97 608.09,346.88 18.24,21.29 120.29,27.06 203.7,72.97 29.11,16.03 70.74,44.73 107.17,41.05 z m 816.91,-1221.66 c 7.9,-11.25 16.1,-20.4 24.59,-30.22 14.79,-17.12 43.66,-17.07 22.28,27.44 -19.22,14.75 -36.52,15.21 -46.87,2.78"
         style="fill:#eff0f2;fill-opacity:1;fill-rule:nonzero;stroke:none"
         transform="matrix(0.13333333,0,0,-0.13333333,0,581.97333)" />
    </g>
  </g>
</svg>
